HIERARCHY
ROOT hip
{
	OFFSET 0.000000 0.000000 0.000000 
	CHANNELS 6 Xposition Yposition Zposition Xrotation Zrotation Yrotation
	JOINT abdomen
	{
		OFFSET 0.000000 3.402643 0.000000 
		CHANNELS 3 Xrotation Zrotation Yrotation
		JOINT chest
		{
			OFFSET 0.000000 8.438565 -0.680529 
			CHANNELS 3 Xrotation Zrotation Yrotation
			JOINT neck
			{
				OFFSET 0.000000 10.207942 -0.272212 
				CHANNELS 3 Xrotation Zrotation Yrotation
				JOINT head
				{
					OFFSET 0.000000 3.130431 0.000000 
					CHANNELS 3 Xrotation Zrotation Yrotation
					End Site
					{
						OFFSET 0.000000 3.130435 0.000000 
					}
				}
			}
			JOINT lCollar
			{
				OFFSET 3.470700 6.669187 -0.816635 
				CHANNELS 3 Yrotation Zrotation Xrotation
				JOINT lShldr
				{
					OFFSET 3.198488 0.000000 0.000000 
					CHANNELS 3 Zrotation Yrotation Xrotation
					JOINT lForeArm
					{
						OFFSET 10.139888 0.000000 0.000000 
						CHANNELS 3 Yrotation Zrotation Xrotation
						JOINT lHand
						{
							OFFSET 8.370511 0.000000 0.000000 
							CHANNELS 3 Zrotation Yrotation Xrotation
							End Site
							{
								OFFSET 4.083176 0.000000 0.000000 
							}
						}
					}
				}
			}
			JOINT rCollar
			{
				OFFSET -3.470700 6.669187 -0.816635 
				CHANNELS 3 Yrotation Zrotation Xrotation
				JOINT rShldr
				{
					OFFSET -3.198488 0.000000 0.000000 
					CHANNELS 3 Zrotation Yrotation Xrotation
					JOINT rForeArm
					{
						OFFSET -10.139888 0.000000 0.000000 
						CHANNELS 3 Yrotation Zrotation Xrotation
						JOINT rHand
						{
							OFFSET -8.370511 0.000000 0.000000 
							CHANNELS 3 Zrotation Yrotation Xrotation
							End Site
							{
								OFFSET -4.083176 0.000000 0.000000 
							}
						}
					}
				}
			}
		}
	}
	JOINT lThigh
	{
		OFFSET 5.308129 -1.633274 1.361059 
		CHANNELS 3 Xrotation Zrotation Yrotation
		JOINT lShin
		{
			OFFSET -2.041588 -20.007561 0.000000 
			CHANNELS 3 Xrotation Zrotation Yrotation
			JOINT lFoot
			{
				OFFSET 0.000000 -19.190928 -1.224953 
				CHANNELS 3 Xrotation Yrotation Zrotation
				End Site
				{
					OFFSET 0.000000 -2.449906 4.627600 
				}
			}
		}
	}
	JOINT rThigh
	{
		OFFSET -5.308129 -1.633274 1.361059 
		CHANNELS 3 Xrotation Zrotation Yrotation
		JOINT rShin
		{
			OFFSET 2.041588 -20.007561 0.000000 
			CHANNELS 3 Xrotation Zrotation Yrotation
			JOINT rFoot
			{
				OFFSET 0.000000 -19.190928 -1.224953 
				CHANNELS 3 Xrotation Yrotation Zrotation
				End Site
				{
					OFFSET 0.000000 -2.449906 4.627600 
				}
			}
		}
	}
}
MOTION
Frames: 16
Frame Time: 0.033333
-21.963640 51.694992 105.284378 1.572266 -2.988281 -3.105469 51.370129 -15.593015 -6.082179 -5.996093 9.404297 11.612925 51.063168 8.107644 2.471410 -57.294922 -20.400389 3.574219 2.000000 -2.000000 0.000000 -54.560543 50.449219 60.202847 -120.299591 1.457308 -2.741368 -64.132996 9.004113 -102.205124 -2.000000 2.000000 0.000000 68.095703 -45.019531 38.222656 116.776123 -1.053944 -3.118450 53.434113 -16.902863 -94.715637 -8.834162 11.842171 -8.782249 25.100777 -4.287166 -2.791516 -12.540452 -1.589892 -0.419231 -13.171387 -8.484596 -5.401781 21.787294 4.861329 1.534265 -3.934982 -2.949239 7.698954 
-21.952879 51.687111 105.286919 1.572266 -2.988281 -3.281250 51.174847 -15.682817 -5.899660 -5.820311 9.394531 11.642219 51.063168 8.107644 2.471410 -56.650391 -19.765621 2.783203 2.000000 -2.000000 0.000000 -54.511719 50.468750 60.273441 -120.299591 1.457308 -2.741368 -63.630310 9.290009 -102.389778 -2.000000 2.000000 0.000000 68.066406 -44.716797 37.942345 116.763229 -1.147890 -3.016324 53.788158 -16.793016 -94.958168 -8.834160 11.842173 -8.782249 25.100777 -4.287169 -2.791517 -12.709721 -1.649287 -0.659498 -13.305843 -8.433956 -5.960617 21.938751 4.754773 1.848658 -3.955278 -2.928520 7.685950 
-21.934013 51.679241 105.288780 1.572266 -2.822265 -3.251953 50.949383 -15.587354 -5.735856 -5.625000 9.531252 11.749663 51.063168 8.107644 2.471410 -56.152344 -18.759764 1.845703 2.000000 -2.000000 0.000000 -54.355469 50.341797 60.212597 -120.136406 1.373662 -2.834285 -63.359104 9.617753 -102.187767 -2.000000 2.000000 0.000000 68.222656 -44.687500 37.587891 116.772591 -0.875818 -3.323115 53.423733 -17.097923 -94.449120 -8.925009 11.698601 -8.958469 25.132685 -4.375169 -2.627051 -12.749875 -1.579874 -0.809985 -13.288263 -8.620961 -5.755993 21.939068 4.754848 1.838947 -4.346666 -2.901030 7.464249 
-21.915266 51.671364 105.290634 1.572266 -2.822265 -3.427734 50.775948 -15.608954 -5.733572 -5.449219 9.521484 11.777345 51.063168 8.107644 2.471410 -55.488281 -17.773436 0.888671 2.000000 -2.000000 0.000000 -54.052734 50.068363 60.359051 -120.136406 1.373662 -2.834285 -63.530567 10.037720 -102.384598 -2.000000 2.000000 0.000000 68.417961 -44.648438 37.128906 116.763229 -1.147890 -3.016324 53.437744 -16.834595 -94.464554 -8.925004 11.698603 -8.958470 25.132685 -4.375168 -2.627051 -12.958609 -1.374652 -0.827896 -13.465778 -8.622396 -5.725645 22.121220 4.763894 2.030749 -4.245898 -2.799131 7.708922 
-21.901154 51.671364 105.289017 1.757813 -2.832031 -3.447265 50.723896 -15.586293 -5.432967 -5.439454 9.687501 11.845703 51.063168 8.107644 2.471410 -54.765629 -16.240232 -0.458985 2.000000 -2.000000 0.000000 -53.955078 49.902344 59.882809 -120.136673 1.373098 -2.844030 -63.489048 9.556266 -102.127640 -2.000000 2.000000 0.000000 68.417961 -44.648438 37.128906 116.763229 -1.147890 -3.016324 53.320747 -17.034245 -94.387108 -8.925012 11.698596 -8.958468 25.132685 -4.375167 -2.627051 -13.135654 -1.439174 -0.678568 -13.465777 -8.622397 -5.725646 22.121218 4.763902 2.030751 -4.197449 -2.911392 7.280235 
-21.886919 51.671364 105.287270 1.757813 -2.646484 -3.633263 50.723896 -15.586293 -5.432967 -5.263672 9.658203 11.884767 51.063168 8.107644 2.471410 -54.257816 -14.882812 -1.533204 2.000000 -2.000000 0.000000 -53.789063 49.589844 59.870720 -120.136673 1.373098 -2.844030 -63.851982 9.331273 -102.013138 -2.000000 2.000000 0.000000 68.281250 -44.658203 36.819309 116.608566 -0.813385 -3.387960 52.984558 -17.174385 -93.984932 -9.015685 11.487051 -8.760294 25.103485 -4.267900 -2.797348 -12.948057 -1.372643 -0.848545 -13.465787 -8.622381 -5.725647 22.121220 4.763896 2.030750 -4.277447 -2.565126 7.234832 
-21.863197 51.671364 105.279053 1.757813 -2.646484 -3.633263 51.061127 -15.360026 -5.475420 -5.810548 9.550781 11.718751 51.063168 8.107644 2.471410 -53.359379 -13.203124 -2.861329 2.000000 -2.000000 0.000000 -53.642578 49.492188 60.017193 -120.299973 1.563418 -2.767096 -63.859531 9.370801 -102.462112 -2.000000 2.000000 0.000000 68.544922 -44.619141 36.965797 116.596817 -0.866069 -3.322552 52.629681 -17.303913 -93.566826 -8.992318 11.482682 -8.561587 24.926914 -4.248295 -2.818540 -12.772938 -1.195852 -0.744206 -13.659307 -8.630820 -5.713777 22.138899 4.775224 2.034359 -4.276946 -2.577261 7.251291 
-21.839476 51.671364 105.270844 1.757813 -2.646484 -3.809045 51.398655 -15.133738 -5.520552 -6.357421 9.443359 11.720353 51.063168 8.107644 2.471410 -52.490238 -11.513671 -3.964844 2.000000 -2.000000 0.000000 -53.632809 49.433594 60.046482 -120.299026 1.468188 -2.722444 -63.799129 9.406669 -102.522148 -2.000000 2.000000 0.000000 68.574219 -44.697269 37.138672 116.600075 -1.044758 -3.108140 52.520016 -17.367077 -93.648514 -9.085596 11.332429 -8.738479 24.957956 -4.341782 -2.655009 -12.812692 -1.187630 -0.751625 -13.649833 -8.631058 -5.586775 22.115343 4.745260 2.016945 -3.987761 -2.407632 7.586258 
-21.809620 51.663479 105.262039 1.757813 -2.470703 -3.799277 51.551014 -14.908562 -5.532371 -6.533203 9.443359 11.710588 51.063168 8.107644 2.471410 -52.001957 -9.960938 -5.136719 2.000000 -2.000000 0.000000 -53.701176 49.433594 59.902344 -120.136406 1.373662 -2.834285 -63.854668 9.634603 -102.566048 -2.000000 2.000000 0.000000 68.574219 -44.697269 37.138672 116.600075 -1.044758 -3.108140 52.163410 -17.164169 -93.624664 -9.085597 11.332431 -8.738479 24.957956 -4.341782 -2.655009 -12.802667 -1.193372 -0.743330 -13.813958 -8.815182 -5.340444 22.113678 4.758306 1.990073 -4.015484 -2.406997 7.364233 
-21.779764 51.655605 105.253242 1.933594 -2.470703 -3.984404 51.734753 -14.700417 -5.584518 -6.708983 9.462892 11.681293 51.063168 8.107644 2.471410 -51.298828 -8.281250 -6.132813 2.000000 -2.000000 0.000000 -53.916016 49.492188 59.607033 -120.136406 1.373662 -2.834285 -64.337303 9.709543 -102.690887 -2.000000 2.000000 0.000000 68.652344 -44.384762 37.304684 116.233971 -1.161588 -2.948669 51.999947 -17.332346 -93.470757 -9.070328 11.326399 -8.579669 24.955486 -4.365274 -2.620855 -12.833822 -1.025516 -0.821333 -13.813953 -8.815190 -5.340442 22.113310 4.758502 1.999832 -4.190504 -2.418805 7.518740 
-21.758818 51.663479 105.251045 1.933594 -2.470703 -3.984404 51.570137 -14.618521 -5.718055 -6.533203 9.443359 11.534804 51.063168 8.107644 2.471410 -51.035156 -7.041015 -7.216797 2.000000 -2.000000 0.000000 -54.492188 48.935551 58.808598 -120.108208 1.731851 -2.561769 -64.740898 9.281497 -102.577599 -2.000000 2.000000 0.000000 68.359375 -44.541016 37.294922 116.590744 -1.316862 -2.801422 51.731510 -17.475981 -93.313614 -8.969318 11.118403 -8.563481 24.947525 -4.527380 -2.681902 -13.020152 -0.625508 -0.311662 -13.963403 -8.983330 -5.320349 22.300901 4.764775 2.045315 -4.356055 -2.202713 7.059304 
-21.737875 51.655605 105.248840 1.933594 -2.285156 -4.130859 51.531429 -14.525237 -5.576151 -6.337891 9.609375 11.622724 51.063168 8.107644 2.471410 -50.722660 -5.673828 -8.115235 2.000000 -2.000000 0.000000 -54.472652 48.964844 58.356979 -120.136673 1.373098 -2.844030 -65.069305 9.504712 -102.431206 -2.000000 2.000000 0.000000 67.880859 -44.687504 37.216797 116.593704 -0.950255 -3.219849 51.182129 -17.821442 -92.840607 -8.969320 11.118404 -8.563481 24.947525 -4.527383 -2.681902 -13.187490 -0.823492 -0.644652 -13.963414 -8.983315 -5.320353 22.301216 4.764834 2.035604 -4.321749 -2.217319 7.254556 
-21.711140 51.639851 105.245605 1.933594 -2.285156 -4.316406 51.490234 -14.406930 -5.445691 -6.328125 9.755859 11.513672 51.063168 8.107644 2.471410 -50.302738 -4.824218 -9.023438 2.000000 -2.000000 0.000000 -54.472656 48.886719 58.125000 -120.136673 1.373098 -2.844030 -65.059494 9.680227 -102.615120 -2.000000 2.000000 0.000000 67.558586 -44.775391 37.304688 116.592560 -0.991505 -3.183116 51.140072 -17.516344 -92.786942 -9.038313 10.962855 -8.551504 24.964176 -4.692813 -2.561333 -13.021071 -0.763191 -0.404496 -14.105642 -9.146050 -5.289171 22.478804 4.755503 1.873342 -4.097643 -2.071278 7.155936 
-21.684528 51.631973 105.242485 2.109375 -2.285156 -4.336327 51.664204 -14.388727 -5.438831 -6.142577 9.746095 11.378606 51.063168 8.107644 2.471410 -50.048828 -3.798828 -10.078125 2.000000 -2.000000 0.000000 -54.287109 48.710938 58.415543 -120.136673 1.373098 -2.844030 -65.058830 9.866019 -102.769485 -2.000000 2.000000 0.000000 67.587891 -44.931641 37.366150 116.600075 -1.044758 -3.108140 51.247086 -17.501852 -92.744217 -9.038315 10.962853 -8.551503 24.782347 -4.712890 -2.530708 -13.204432 -0.586658 -0.478537 -14.105639 -9.146053 -5.289170 22.478804 4.755499 1.873342 -4.314480 -2.059647 7.140918 
-21.663584 51.639851 105.229980 2.109375 -2.119141 -4.502314 51.644424 -14.288615 -5.315247 -6.123047 10.068359 11.337891 51.063168 8.107644 2.471410 -49.814453 -3.095703 -10.781779 2.000000 -2.000000 0.000000 -54.511719 48.623047 58.027340 -120.312454 1.373098 -2.844030 -64.550865 9.721096 -102.783394 -2.000000 2.000000 0.000000 67.470703 -44.951168 36.955994 116.950340 -0.969583 -3.054902 52.203320 -18.055878 -92.513275 -9.216466 10.974716 -8.377764 24.956886 -4.673801 -2.576143 -13.392430 -0.626614 -0.730169 -14.311119 -9.175825 -4.942909 22.484325 4.803499 1.435517 -4.352953 -1.928098 7.450956 
-21.642525 51.631973 105.217491 2.109375 -2.119141 -4.502314 51.595127 -14.186227 -5.169961 -5.927734 10.214845 11.271263 51.063168 8.107644 2.471410 -49.423828 -2.597656 -11.669924 2.000000 -2.000000 0.000000 -54.296875 48.466793 58.115231 -120.295380 1.563285 -2.600857 -64.406349 9.693715 -102.913857 -2.000000 2.000000 0.000000 67.207031 -45.244141 37.121971 116.768326 -1.001254 -3.183678 52.707764 -17.835701 -92.675598 -9.216465 10.974722 -8.377763 24.956886 -4.673800 -2.576143 -13.392430 -0.626614 -0.730169 -14.401729 -9.373049 -5.282324 22.478220 4.755124 1.892720 -4.233187 -1.896087 7.039668 
